# xmcd
#
# Track frame offsets:
#	150
#	18560
#	36897
#	51517
#	64525
#	81925
#	100382
#	116245
#	131412
#	146047
#	160062
#	172315
#	183372
#	196680
#	218040
#	231180
#	246722
#	266080
#	282092
#	295847
#
# Disc length: 4117
#
# Revision: 1
# Processed by: cddbd v1.5.1PL0 Copyright (c) Steve Scherf et al.
# Submitted via: OrangeCD 5.1
# Normalized: r0:DSETVAR1
#
DISCID=37101314
DTITLE=Various Artist - Kool Country Love
DYEAR=1900
DGENRE=Country
TTITLE0=Vince Gill - I Can't Tell You Why
TTITLE1=Reba McEntire - Read My Mind
TTITLE2=The Mavericks - O What A Thrill
TTITLE3=Wyonna Judd - Just Like New
TTITLE4=John Anderson - When It Comes To You
TTITLE5=Patty Loveless - You Don't Even Know Who I Am
TTITLE6=Joe Diffie - So Help Me Girl
TTITLE7=Sawyer Brown - All These Years
TTITLE8=Reba McEntire - The Greatest Man I Ever Knew
TTITLE9=Ricky Van Shelton - Love and Honor
TTITLE10=Clint Black - One Emotion
TTITLE11=Jeff Carson - Yeah Buddy
TTITLE12=Tim McGraw - Down On The Farm
TTITLE13=Carlene Carter - Come Here You
TTITLE14=John Anderson - Straight Tequila Night
TTITLE15=Lorrie Morgan - The Hard Part Was Easy
TTITLE16=Joe Diffie - That Road Not Taken
TTITLE17=Keith Whitley - I Just Want You
TTITLE18=Ricky Van Shelton - Love Without You
TTITLE19=David Allan Coe - Would You Lay With Me (In A Field Of Stone)
EXTD=
EXTT0=
EXTT1=
EXTT2=
EXTT3=
EXTT4=
EXTT5=
EXTT6=
EXTT7=
EXTT8=
EXTT9=
EXTT10=
EXTT11=
EXTT12=
EXTT13=
EXTT14=
EXTT15=
EXTT16=
EXTT17=
EXTT18=
EXTT19=
PLAYORDER=
